<svg id="Layer_1" data-name="Layer 1" xmlns="http://www.w3.org/2000/svg" viewBox="0 0 185 188"><defs><style>.cls-1{fill:#009bcc;}.cls-2{opacity:0.45;}.cls-3{fill:#2eb5f6;}.cls-4{font-size:45.01px;fill:#fff;font-family:MostraNuova-Bold, Mostra Nuova;font-weight:700;}</style></defs><circle class="cls-1" cx="92.11" cy="94.78" r="88.22"/><g class="cls-2"><path class="cls-1" d="M105.84,18.49Q99,56.64,92.11,94.78q9.83,10.23,19.81,21.61,5.46,6.23,10.58,12.37"/><path class="cls-3" d="M122.5,133.94a5.16,5.16,0,0,1-4-1.86c-3.43-4.11-7-8.25-10.49-12.28-6.36-7.26-13-14.47-19.65-21.43A5.18,5.18,0,0,1,87,93.87l13.73-76.29a5.18,5.18,0,1,1,10.19,1.83L97.67,93.11c6.17,6.48,12.26,13.16,18.14,19.87,3.59,4.1,7.18,8.29,10.66,12.47a5.17,5.17,0,0,1-4,8.49Z"/></g><text class="cls-4" transform="translate(14.86 108.19)">TimeWise</text></svg>